<svg width="20" height="19" viewBox="0 0 20 19" fill="none" xmlns="http://www.w3.org/2000/svg">
<path d="M12.7438 9.50456C12.7438 11.2991 11.5174 12.7493 9.99982 12.7493C8.48219 12.7493 7.25586 11.2991 7.25586 9.50456C7.25586 7.71 8.48219 6.25989 9.99982 6.25989C11.5174 6.25989 12.7438 7.71 12.7438 9.50456Z" stroke="white" stroke-width="3.30659" stroke-linecap="round" stroke-linejoin="round"/>
<path d="M10 17C12.7057 17 15.2274 15.1148 16.9826 11.852C17.6725 10.574 17.6725 8.426 16.9826 7.14803C15.2274 3.88519 12.7057 2 10 2C7.29432 2 4.77261 3.88519 3.01737 7.14803C2.32754 8.426 2.32754 10.574 3.01737 11.852C4.77261 15.1148 7.29432 17 10 17Z" stroke="white" stroke-width="3.30659" stroke-linecap="round" stroke-linejoin="round"/>
</svg>
