<svg width="90" height="90" viewBox="0 0 90 90" fill="none" xmlns="http://www.w3.org/2000/svg">
<path opacity="0.4" d="M45 90C69.8526 90 90 69.853 90 45C90 20.1472 69.8526 0 45 0C20.1472 0 0 20.1472 0 45C0 69.853 20.1472 90 45 90Z" fill="#A38C9A"/>
<path d="M45 22.1847C35.685 22.1847 28.125 29.7447 28.125 39.0595C28.125 48.1945 35.28 55.6195 44.775 55.8895H45.18H45.495H45.585C54.675 55.5745 61.83 48.1945 61.875 39.0595C61.875 29.7447 54.315 22.1847 45 22.1847Z" fill="#A38C9A"/>
<path d="M75.5132 78.075C67.5032 85.455 56.7932 90.0001 45.0032 90.0001C33.2132 90.0001 22.5032 85.455 14.4932 78.075C15.5732 73.98 18.4982 70.245 22.7732 67.365C35.0582 59.175 55.0382 59.175 67.2332 67.365C71.5532 70.245 74.4332 73.98 75.5132 78.075Z" fill="#A38C9A"/>
</svg>
